<svg xmlns="http://www.w3.org/2000/svg" viewBox="0 0 256 256" width="256" height="256" role="img" aria-label="Smoke icon orange">
  <defs>
    <style>
      :root { --fill:#F6B04A; --stroke:#C97A1E; --hi:#FFD59A; }
    </style>
    <filter id="softShadow" x="-20%" y="-20%" width="140%" height="140%">
      <feDropShadow dx="0" dy="6" stdDeviation="6" flood-color="#000" flood-opacity="0.25"/>
    </filter>
  </defs>

  <g filter="url(#softShadow)" stroke="var(--stroke)" stroke-width="8" stroke-linejoin="round">
    <!-- Main cloud -->
    <path fill="var(--fill)" d="
      M 70 170
      C 48 170, 32 154, 32 136
      C 32 120, 43 107, 60 104
      C 64 80, 88 62, 116 62
      C 140 62, 160 75, 170 94
      C 173 93, 177 92, 182 92
      C 205 92, 224 111, 224 134
      C 224 155, 207 170, 184 170
      Z" />

    <!-- Bottom puff -->
    <path fill="var(--fill)" d="
      M 88 214
      C 68 214, 54 200, 54 184
      C 54 170, 65 158, 80 156
      C 83 141, 98 130, 116 130
      C 131 130, 144 137, 151 149
      C 154 148, 157 148, 161 148
      C 177 148, 190 161, 190 177
      C 190 200, 172 214, 150 214
      Z" />
  </g>

  <!-- Highlights -->
  <g opacity="0.35">
    <path fill="var(--hi)" d="M78 96c8-12 22-20 38-20 18 0 34 10 42 26 2 4-2 8-6 6-8-4-16-6-24-6-18 0-34 8-44 18-3 3-8 0-6-4z"/>
    <path fill="var(--hi)" d="M90 160c5-8 15-13 26-13 12 0 22 6 28 16 2 3-1 7-5 6-6-2-12-3-18-3-12 0-22 5-29 12-3 3-6 0-4-3z"/>
  </g>
</svg>